<svg width="32" height="20" viewBox="0 0 32 20" fill="none" xmlns="http://www.w3.org/2000/svg">
<path d="M12.8889 8.96151C14.6556 8.11963 15.5778 6.84575 15.5778 4.86292C15.5778 0.952645 12.6556 0 9.28333 0H0V19.6289H9.54445C13.1222 19.6289 16.4833 17.9175 16.4833 13.9297C16.4833 11.465 15.3111 9.64276 12.8889 8.96151ZM4.32778 3.35087H8.38889C9.95 3.35087 11.3556 3.78842 11.3556 5.59402C11.3556 7.26115 10.2611 7.93132 8.71667 7.93132H4.32778V3.35087ZM8.95556 16.2947H4.32778V10.889H9.04445C10.95 10.889 12.1556 11.681 12.1556 13.6915C12.1556 15.6743 10.7167 16.2947 8.95556 16.2947ZM28.8722 2.96317H20.8889V1.03019H28.8722V2.96317ZM32 12.7278C32 8.52396 29.5333 5.018 25.0611 5.018C20.7167 5.018 17.7667 8.27472 17.7667 12.5395C17.7667 16.9648 20.5611 20 25.0611 20C28.4667 20 30.6722 18.4713 31.7333 15.2202H28.2778C27.9056 16.4331 26.3722 17.0756 25.1833 17.0756C22.8889 17.0756 21.6833 15.7353 21.6833 13.4589H31.9667C31.9833 13.2263 32 12.977 32 12.7278ZM21.6889 10.9997C21.8167 9.1332 23.0611 7.96455 24.9389 7.96455C26.9056 7.96455 27.8944 9.11659 28.0611 10.9997H21.6889Z" fill="#FFF0ED"/>
</svg>
