<svg width="20" height="20" viewBox="0 0 20 20" fill="none" xmlns="http://www.w3.org/2000/svg">
<path d="M9.98292 6.46965C9.04676 6.46965 8.14894 6.84154 7.48698 7.5035C6.82501 8.16547 6.45313 9.06329 6.45312 9.99945C6.45313 10.9356 6.82501 11.8334 7.48698 12.4954C8.14894 13.1574 9.04676 13.5292 9.98292 13.5292C10.9191 13.5292 11.8169 13.1574 12.4789 12.4954C13.1408 11.8334 13.5127 10.9356 13.5127 9.99945C13.5127 9.06329 13.1408 8.16547 12.4789 7.5035C11.8169 6.84154 10.9191 6.46965 9.98292 6.46965Z" fill="#FFF0ED"/>
<path fill-rule="evenodd" clip-rule="evenodd" d="M4.30311 0.313667C8.0784 -0.104556 11.8883 -0.104556 15.6636 0.313667C17.7261 0.543918 19.3889 2.16762 19.6311 4.23771C20.0785 8.06583 20.0785 11.933 19.6311 15.7611C19.3889 17.8312 17.7261 19.4549 15.6647 19.6863C11.8891 20.1046 8.07876 20.1046 4.30311 19.6863C2.24062 19.4549 0.577815 17.8312 0.335617 15.7622C-0.111872 11.9338 -0.111872 8.06619 0.335617 4.23771C0.577815 2.16762 2.24062 0.543918 4.30311 0.313667ZM15.4138 3.48288C15.1258 3.48288 14.8495 3.59731 14.6458 3.80099C14.4422 4.00467 14.3277 4.28092 14.3277 4.56897C14.3277 4.85702 14.4422 5.13327 14.6458 5.33695C14.8495 5.54064 15.1258 5.65506 15.4138 5.65506C15.7019 5.65506 15.9781 5.54064 16.1818 5.33695C16.3855 5.13327 16.4999 4.85702 16.4999 4.56897C16.4999 4.28092 16.3855 4.00467 16.1818 3.80099C15.9781 3.59731 15.7019 3.48288 15.4138 3.48288ZM4.82443 9.99943C4.82443 8.63119 5.36796 7.319 6.33545 6.35151C7.30293 5.38402 8.61513 4.84049 9.98336 4.84049C11.3516 4.84049 12.6638 5.38402 13.6313 6.35151C14.5988 7.319 15.1423 8.63119 15.1423 9.99943C15.1423 11.3677 14.5988 12.6799 13.6313 13.6473C12.6638 14.6148 11.3516 15.1584 9.98336 15.1584C8.61513 15.1584 7.30293 14.6148 6.33545 13.6473C5.36796 12.6799 4.82443 11.3677 4.82443 9.99943Z" fill="#FFF0ED"/>
</svg>
