<svg width="24" height="20" viewBox="0 0 24 20" fill="none" xmlns="http://www.w3.org/2000/svg">
<path d="M20.4 0H3.6C2.64522 0 1.72955 0.395088 1.05442 1.09835C0.379285 1.80161 0 2.75544 0 3.75V16.25C0 17.2446 0.379285 18.1984 1.05442 18.9017C1.72955 19.6049 2.64522 20 3.6 20H20.4C21.3548 20 22.2705 19.6049 22.9456 18.9017C23.6207 18.1984 24 17.2446 24 16.25V3.75C24 2.75544 23.6207 1.80161 22.9456 1.09835C22.2705 0.395088 21.3548 0 20.4 0ZM20.4 2.5L12.6 8.0875C12.4176 8.19721 12.2106 8.25497 12 8.25497C11.7894 8.25497 11.5824 8.19721 11.4 8.0875L3.6 2.5H20.4Z" fill="#FFF0ED"/>
</svg>
